<svg width="66" height="50" viewBox="0 0 66 50" fill="none" xmlns="http://www.w3.org/2000/svg">
<path d="M63 0H3C2.33696 0 1.70107 0.263393 1.23223 0.732234C0.763392 1.20107 0.5 1.83696 0.5 2.5V45C0.5 46.3261 1.02678 47.5979 1.96447 48.5355C2.90215 49.4732 4.17392 50 5.5 50H60.5C61.8261 50 63.0979 49.4732 64.0355 48.5355C64.9732 47.5979 65.5 46.3261 65.5 45V2.5C65.5 1.83696 65.2366 1.20107 64.7678 0.732234C64.2989 0.263393 63.663 0 63 0ZM56.5719 5L33 26.6094L9.42812 5H56.5719ZM60.5 45H5.5V8.18438L31.3094 31.8437C31.7706 32.2671 32.3739 32.5021 33 32.5021C33.6261 32.5021 34.2294 32.2671 34.6906 31.8437L60.5 8.18438V45Z" fill="black"/>
<path d="M63 0H3C2.33696 0 1.70107 0.263393 1.23223 0.732234C0.763392 1.20107 0.5 1.83696 0.5 2.5V45C0.5 46.3261 1.02678 47.5979 1.96447 48.5355C2.90215 49.4732 4.17392 50 5.5 50H60.5C61.8261 50 63.0979 49.4732 64.0355 48.5355C64.9732 47.5979 65.5 46.3261 65.5 45V2.5C65.5 1.83696 65.2366 1.20107 64.7678 0.732234C64.2989 0.263393 63.663 0 63 0ZM56.5719 5L33 26.6094L9.42812 5H56.5719ZM60.5 45H5.5V8.18438L31.3094 31.8437C31.7706 32.2671 32.3739 32.5021 33 32.5021C33.6261 32.5021 34.2294 32.2671 34.6906 31.8437L60.5 8.18438V45Z" fill="#355342"/>
</svg>
