<svg width="14" height="14" viewBox="0 0 14 14" fill="none" xmlns="http://www.w3.org/2000/svg">
<path d="M13.875 7C13.875 8.35975 13.4718 9.68896 12.7164 10.8195C11.9609 11.9501 10.8872 12.8313 9.63095 13.3517C8.37471 13.872 6.99238 14.0082 5.65876 13.7429C4.32514 13.4776 3.10013 12.8228 2.13864 11.8614C1.17716 10.8999 0.522378 9.67487 0.257104 8.34125C-0.0081691 7.00763 0.127979 5.62529 0.648331 4.36905C1.16868 3.11281 2.04987 2.03908 3.18046 1.28365C4.31105 0.528212 5.64026 0.125 7 0.125C8.82337 0.125 10.5721 0.849328 11.8614 2.13864C13.1507 3.42795 13.875 5.17664 13.875 7Z" fill="#1C1C1C" fill-opacity="0.1"/>
<path d="M13.875 7C13.875 8.35975 13.4718 9.68896 12.7164 10.8195C11.9609 11.9501 10.8872 12.8313 9.63095 13.3517C8.37471 13.872 6.99238 14.0082 5.65876 13.7429C4.32514 13.4776 3.10013 12.8228 2.13864 11.8614C1.17716 10.8999 0.522378 9.67487 0.257104 8.34125C-0.0081691 7.00763 0.127979 5.62529 0.648331 4.36905C1.16868 3.11281 2.04987 2.03908 3.18046 1.28365C4.31105 0.528212 5.64026 0.125 7 0.125C8.82337 0.125 10.5721 0.849328 11.8614 2.13864C13.1507 3.42795 13.875 5.17664 13.875 7Z" fill="#355342" fill-opacity="0.1"/>
</svg>
