<svg width="13" height="14" viewBox="0 0 13 14" fill="none" xmlns="http://www.w3.org/2000/svg">
<path d="M5.05556 11.2C5.2471 11.2 5.4308 11.1263 5.56624 10.995C5.70169 10.8637 5.77778 10.6857 5.77778 10.5V6.3C5.77778 6.11435 5.70169 5.9363 5.56624 5.80503C5.4308 5.67375 5.2471 5.6 5.05556 5.6C4.86401 5.6 4.68031 5.67375 4.54487 5.80503C4.40942 5.9363 4.33333 6.11435 4.33333 6.3V10.5C4.33333 10.6857 4.40942 10.8637 4.54487 10.995C4.68031 11.1263 4.86401 11.2 5.05556 11.2ZM12.2778 2.8H9.38889V2.1C9.38889 1.54305 9.16062 1.0089 8.75429 0.615076C8.34796 0.221249 7.79686 0 7.22222 0H5.77778C5.20314 0 4.65204 0.221249 4.24571 0.615076C3.83938 1.0089 3.61111 1.54305 3.61111 2.1V2.8H0.722222C0.530677 2.8 0.346977 2.87375 0.211534 3.00503C0.076091 3.1363 0 3.31435 0 3.5C0 3.68565 0.076091 3.8637 0.211534 3.99497C0.346977 4.12625 0.530677 4.2 0.722222 4.2H1.44444V11.9C1.44444 12.457 1.67272 12.9911 2.07905 13.3849C2.48538 13.7788 3.03648 14 3.61111 14H9.38889C9.96352 14 10.5146 13.7788 10.921 13.3849C11.3273 12.9911 11.5556 12.457 11.5556 11.9V4.2H12.2778C12.4693 4.2 12.653 4.12625 12.7885 3.99497C12.9239 3.8637 13 3.68565 13 3.5C13 3.31435 12.9239 3.1363 12.7885 3.00503C12.653 2.87375 12.4693 2.8 12.2778 2.8ZM5.05556 2.1C5.05556 1.91435 5.13165 1.7363 5.26709 1.60503C5.40253 1.47375 5.58623 1.4 5.77778 1.4H7.22222C7.41377 1.4 7.59747 1.47375 7.73291 1.60503C7.86835 1.7363 7.94444 1.91435 7.94444 2.1V2.8H5.05556V2.1ZM10.1111 11.9C10.1111 12.0857 10.035 12.2637 9.89958 12.395C9.76413 12.5263 9.58043 12.6 9.38889 12.6H3.61111C3.41957 12.6 3.23587 12.5263 3.10042 12.395C2.96498 12.2637 2.88889 12.0857 2.88889 11.9V4.2H10.1111V11.9ZM7.94444 11.2C8.13599 11.2 8.31969 11.1263 8.45513 10.995C8.59058 10.8637 8.66667 10.6857 8.66667 10.5V6.3C8.66667 6.11435 8.59058 5.9363 8.45513 5.80503C8.31969 5.67375 8.13599 5.6 7.94444 5.6C7.7529 5.6 7.5692 5.67375 7.43376 5.80503C7.29831 5.9363 7.22222 6.11435 7.22222 6.3V10.5C7.22222 10.6857 7.29831 10.8637 7.43376 10.995C7.5692 11.1263 7.7529 11.2 7.94444 11.2Z" fill="#4F4F4F"/>
</svg>