<svg width="80" height="80" viewBox="0 0 80 80" fill="none" xmlns="http://www.w3.org/2000/svg">
<path d="M74.7262 32.7413C75.4109 30.711 75.7602 28.5853 75.7606 26.4457C75.7603 22.9051 74.8045 19.4285 72.9913 16.3731C69.348 10.1158 62.5896 6.25259 55.2752 6.25259C53.8342 6.25261 52.3973 6.40277 50.9882 6.70058C49.0931 4.59374 46.7668 2.90723 44.1627 1.75225C41.5587 0.597272 38.7362 6.15763e-05 35.8811 0H35.7529L35.7048 0.000279142C26.8458 0.000279142 18.9893 5.64065 16.266 13.9558C13.4469 14.5255 10.7838 15.6828 8.45476 17.3503C6.12574 19.0178 4.1846 21.1569 2.76128 23.6245C0.953671 26.6982 0.00110613 30.1885 0 33.7422C0.000690806 38.7365 1.8796 43.5529 5.27291 47.2588C4.58794 49.2889 4.23861 51.4146 4.23831 53.5544C4.23863 57.0949 5.19445 60.5715 7.00752 63.6269C9.16359 67.3308 12.4562 70.2635 16.4105 72.0018C20.3649 73.7402 24.7766 74.1945 29.0095 73.2991C30.9049 75.406 33.2314 77.0925 35.8356 78.2475C38.4398 79.4025 41.2625 79.9998 44.1177 80H44.246L44.298 79.9997C53.1619 79.9997 61.0158 74.3591 63.7391 66.0363C66.5582 65.4664 69.2213 64.309 71.5503 62.6415C73.8794 60.9741 75.8206 58.835 77.2441 56.3674C79.0498 53.2964 80.0005 49.809 80 46.2586C79.9993 41.2644 78.1204 36.4481 74.7271 32.7424L74.7262 32.7413ZM44.251 74.7699H44.2301C40.6833 74.7688 37.2491 73.541 34.5247 71.3002C34.6865 71.2143 34.8464 71.1249 35.0042 71.0321L51.1479 61.8313C51.5508 61.605 51.8857 61.2775 52.1188 60.8821C52.3519 60.4868 52.4747 60.0375 52.4749 59.5801V37.1083L59.2984 40.9958C59.3342 41.0135 59.3651 41.0395 59.3883 41.0717C59.4114 41.1039 59.4262 41.1413 59.4312 41.1804V59.7776C59.4218 68.0459 52.6314 74.7532 44.251 74.7699ZM11.6056 61.0127C10.2721 58.7376 9.56957 56.1562 9.56868 53.5281C9.56868 52.6709 9.64454 51.8115 9.7923 50.967C9.91232 51.0379 10.1218 51.1641 10.2721 51.2493L26.4158 60.4502C26.8183 60.682 27.276 60.8041 27.742 60.804C28.2081 60.8039 28.6657 60.6816 29.0681 60.4496L48.7778 49.2205V56.9958L48.7781 57.0092C48.7781 57.0467 48.7693 57.0836 48.7523 57.1171C48.7354 57.1506 48.7108 57.1797 48.6804 57.2022L32.3607 66.4994C30.0515 67.8107 27.4341 68.5012 24.7698 68.502C22.1026 68.5016 19.4825 67.8094 17.172 66.4948C14.8615 65.1802 12.9419 63.2893 11.6056 61.0118V61.0127ZM7.35852 26.2387C9.13161 23.2 11.9313 20.8733 15.2676 19.6658C15.2676 19.8029 15.2597 20.0459 15.2597 20.2146V38.6165L15.2594 38.6316C15.2595 39.0885 15.3821 39.5373 15.6148 39.9323C15.8475 40.3273 16.1821 40.6546 16.5844 40.8808L36.2941 52.1082L29.4709 55.9957C29.4372 56.0176 29.3986 56.0309 29.3584 56.0345C29.3183 56.0381 29.2779 56.0319 29.2408 56.0163L12.9193 46.7113C10.612 45.3925 8.69656 43.4985 7.36489 41.2191C6.03321 38.9398 5.33208 36.3551 5.33178 33.7241C5.33281 31.0972 6.03192 28.5166 7.35937 26.2395L7.35852 26.2387ZM63.4207 39.1111L43.711 27.8823L50.5345 23.9962C50.5681 23.9743 50.6068 23.961 50.6469 23.9573C50.6871 23.9537 50.7275 23.96 50.7646 23.9756L67.0858 33.2728C69.395 34.5895 71.3125 36.4825 72.6457 38.7616C73.979 41.0408 74.6812 43.6259 74.6818 46.2575C74.6818 52.5386 70.7096 58.1588 64.7369 60.3281V41.376C64.7378 41.369 64.7378 41.3617 64.7378 41.3547C64.7377 40.8995 64.6158 40.4523 64.3846 40.0584C64.1533 39.6645 63.8208 39.3378 63.4207 39.1111ZM70.2122 29.0255C70.0535 28.9296 69.8937 28.8355 69.7327 28.7434L53.589 19.5423C53.1865 19.3109 52.729 19.1889 52.2632 19.1887C51.7973 19.1889 51.3398 19.3109 50.9373 19.5423L31.2273 30.7714V22.9961L31.227 22.9827C31.227 22.9067 31.2635 22.8352 31.3249 22.7897L47.6447 13.5003C49.9531 12.1872 52.5708 11.4959 55.2353 11.4958C63.6265 11.4958 70.4313 18.2101 70.4313 26.4895C70.4309 27.3391 70.3576 28.1872 70.2122 29.0247V29.0255ZM27.5175 42.8836L20.6925 38.9961C20.6567 38.9785 20.6258 38.9524 20.6027 38.9202C20.5795 38.888 20.5648 38.8506 20.5598 38.8115V20.214C20.5634 11.939 27.3683 5.23037 35.7557 5.23037C39.3081 5.23109 42.7481 6.45897 45.4787 8.70089C45.3559 8.76709 45.1416 8.88383 44.9992 8.96902L28.8555 18.1698C28.4527 18.396 28.1178 18.7233 27.8847 19.1185C27.6517 19.5138 27.5289 19.9629 27.5288 20.4201V20.4349L27.5175 42.8836ZM31.2242 34.9982L40.0025 29.9955L48.7809 34.9949V44.997L40.0025 49.9967L31.2242 44.997V34.9982Z" fill="#1C1C1C"/>
</svg>
