<svg width="11" height="14" viewBox="0 0 11 14" fill="none" xmlns="http://www.w3.org/2000/svg">
<path d="M5.71994 6.21248L6.27812 6.83244L9.55174 3.19642L8.99357 2.57646L5.71994 6.21248ZM1.34505 11.6916H1.90323L5.41822 7.78753L4.86005 7.16756L1.34505 11.0717V11.6916ZM6.70052 8.25669L4.43765 5.74331L6.95698 2.94509L6.51949 2.45917L3.6381 5.65953C3.51741 5.79358 3.37661 5.8606 3.21569 5.8606C3.05478 5.8606 2.91398 5.79358 2.79329 5.65953C2.6726 5.52549 2.61226 5.36642 2.61226 5.18233C2.61226 4.99823 2.6726 4.83894 2.79329 4.70445L5.6596 1.52084C5.90097 1.25274 6.18519 1.1187 6.51225 1.1187C6.83931 1.1187 7.12333 1.25274 7.3643 1.52084L7.80179 2.00676L8.55608 1.16897C8.67676 1.03492 8.82018 0.967896 8.98633 0.967896C9.15247 0.967896 9.29569 1.03492 9.41597 1.16897L10.819 2.72726C10.9396 2.86131 11 3.02037 11 3.20447C11 3.38856 10.9396 3.54785 10.819 3.68234L6.70052 8.25669ZM0.741617 13.0321C0.570644 13.0321 0.427429 12.9678 0.311972 12.8391C0.196516 12.7104 0.138586 12.5513 0.138184 12.3619V11.0717C0.138184 10.8929 0.168355 10.7225 0.228699 10.5603C0.289042 10.3981 0.374528 10.2558 0.485158 10.1333L4.43765 5.74331L6.70052 8.25669L2.74803 12.6467C2.6374 12.7696 2.50907 12.8645 2.36304 12.9316C2.21701 12.9986 2.06374 13.0321 1.90323 13.0321H0.741617Z" fill="#4A4A4A"/>
</svg>