<svg width="14" height="14" viewBox="0 0 14 14" fill="none" xmlns="http://www.w3.org/2000/svg">
<path d="M13.3496 13.3562C13.2563 13.4481 13.1306 13.4998 12.9996 13.5C12.8668 13.4994 12.7393 13.448 12.6434 13.3562L9.94336 10.65C8.80622 11.6051 7.34425 12.0844 5.86236 11.9878C4.38046 11.8912 2.99306 11.2263 1.98951 10.1316C0.985965 9.03698 0.443754 7.59717 0.475967 6.11248C0.508179 4.62779 1.11233 3.21286 2.16241 2.16277C3.21249 1.11269 4.62743 0.508545 6.11212 0.476333C7.59681 0.444121 9.03661 0.986331 10.1313 1.98988C11.2259 2.99343 11.8908 4.38083 11.9874 5.86273C12.084 7.34462 11.6047 8.80659 10.6496 9.94373L13.3496 12.6437C13.3969 12.6903 13.4344 12.7457 13.46 12.8069C13.4856 12.868 13.4988 12.9337 13.4988 13C13.4988 13.0663 13.4856 13.1319 13.46 13.1931C13.4344 13.2542 13.3969 13.3097 13.3496 13.3562ZM6.24961 11C7.18907 11 8.10743 10.7214 8.88857 10.1995C9.6697 9.67752 10.2785 8.93567 10.638 8.06772C10.9976 7.19977 11.0916 6.24471 10.9083 5.3233C10.7251 4.40189 10.2727 3.55552 9.60837 2.89122C8.94407 2.22692 8.0977 1.77452 7.17629 1.59124C6.25488 1.40797 5.29981 1.50203 4.43186 1.86155C3.56391 2.22106 2.82206 2.82988 2.30013 3.61102C1.77819 4.39215 1.49961 5.31051 1.49961 6.24998C1.50126 7.50925 2.00224 8.71647 2.89268 9.60691C3.78312 10.4973 4.99034 10.9983 6.24961 11Z" fill="#1C1C1C" fill-opacity="0.2"/>
<path d="M13.3496 13.3562C13.2563 13.4481 13.1306 13.4998 12.9996 13.5C12.8668 13.4994 12.7393 13.448 12.6434 13.3562L9.94336 10.65C8.80622 11.6051 7.34425 12.0844 5.86236 11.9878C4.38046 11.8912 2.99306 11.2263 1.98951 10.1316C0.985965 9.03698 0.443754 7.59717 0.475967 6.11248C0.508179 4.62779 1.11233 3.21286 2.16241 2.16277C3.21249 1.11269 4.62743 0.508545 6.11212 0.476333C7.59681 0.444121 9.03661 0.986331 10.1313 1.98988C11.2259 2.99343 11.8908 4.38083 11.9874 5.86273C12.084 7.34462 11.6047 8.80659 10.6496 9.94373L13.3496 12.6437C13.3969 12.6903 13.4344 12.7457 13.46 12.8069C13.4856 12.868 13.4988 12.9337 13.4988 13C13.4988 13.0663 13.4856 13.1319 13.46 13.1931C13.4344 13.2542 13.3969 13.3097 13.3496 13.3562ZM6.24961 11C7.18907 11 8.10743 10.7214 8.88857 10.1995C9.6697 9.67752 10.2785 8.93567 10.638 8.06772C10.9976 7.19977 11.0916 6.24471 10.9083 5.3233C10.7251 4.40189 10.2727 3.55552 9.60837 2.89122C8.94407 2.22692 8.0977 1.77452 7.17629 1.59124C6.25488 1.40797 5.29981 1.50203 4.43186 1.86155C3.56391 2.22106 2.82206 2.82988 2.30013 3.61102C1.77819 4.39215 1.49961 5.31051 1.49961 6.24998C1.50126 7.50925 2.00224 8.71647 2.89268 9.60691C3.78312 10.4973 4.99034 10.9983 6.24961 11Z" fill="#355342" fill-opacity="0.2"/>
</svg>
