<svg width="17" height="18" viewBox="0 0 17 18" fill="none" xmlns="http://www.w3.org/2000/svg">
<path d="M15.4898 7.90635L2.36484 0.414939C2.1436 0.290834 1.88983 0.236978 1.63726 0.260525C1.38468 0.284072 1.14525 0.383909 0.950762 0.546772C0.756276 0.709635 0.615943 0.927816 0.548407 1.17233C0.48087 1.41685 0.489325 1.67612 0.57265 1.91572L2.99452 8.98369C2.99421 8.98628 2.99421 8.98891 2.99452 8.9915C2.99409 8.99409 2.99409 8.99673 2.99452 8.99931L0.57265 16.0829C0.50592 16.2714 0.485375 16.4731 0.512739 16.6712C0.540103 16.8692 0.614578 17.0578 0.729913 17.2212C0.845248 17.3845 0.998077 17.5177 1.17557 17.6098C1.35307 17.7018 1.55005 17.7499 1.74999 17.7501C1.96692 17.7495 2.18004 17.693 2.36874 17.586L15.4867 10.0821C15.6802 9.97373 15.8414 9.81581 15.9537 9.62455C16.066 9.4333 16.1254 9.21561 16.1258 8.99382C16.1262 8.77202 16.0676 8.55412 15.956 8.36247C15.8443 8.17081 15.6837 8.01231 15.4906 7.90322L15.4898 7.90635ZM1.74999 16.5001V16.4931L4.10468 9.6251H8.62499C8.79075 9.6251 8.94973 9.55925 9.06694 9.44204C9.18415 9.32483 9.24999 9.16586 9.24999 9.0001C9.24999 8.83434 9.18415 8.67536 9.06694 8.55815C8.94973 8.44094 8.79075 8.3751 8.62499 8.3751H4.11093L1.75468 1.50947L1.74999 1.5001L14.875 8.98681L1.74999 16.5001Z" fill="#1C1C1C" fill-opacity="0.4"/>
<path d="M15.4898 7.90635L2.36484 0.414939C2.1436 0.290834 1.88983 0.236978 1.63726 0.260525C1.38468 0.284072 1.14525 0.383909 0.950762 0.546772C0.756276 0.709635 0.615943 0.927816 0.548407 1.17233C0.48087 1.41685 0.489325 1.67612 0.57265 1.91572L2.99452 8.98369C2.99421 8.98628 2.99421 8.98891 2.99452 8.9915C2.99409 8.99409 2.99409 8.99673 2.99452 8.99931L0.57265 16.0829C0.50592 16.2714 0.485375 16.4731 0.512739 16.6712C0.540103 16.8692 0.614578 17.0578 0.729913 17.2212C0.845248 17.3845 0.998077 17.5177 1.17557 17.6098C1.35307 17.7018 1.55005 17.7499 1.74999 17.7501C1.96692 17.7495 2.18004 17.693 2.36874 17.586L15.4867 10.0821C15.6802 9.97373 15.8414 9.81581 15.9537 9.62455C16.066 9.4333 16.1254 9.21561 16.1258 8.99382C16.1262 8.77202 16.0676 8.55412 15.956 8.36247C15.8443 8.17081 15.6837 8.01231 15.4906 7.90322L15.4898 7.90635ZM1.74999 16.5001V16.4931L4.10468 9.6251H8.62499C8.79075 9.6251 8.94973 9.55925 9.06694 9.44204C9.18415 9.32483 9.24999 9.16586 9.24999 9.0001C9.24999 8.83434 9.18415 8.67536 9.06694 8.55815C8.94973 8.44094 8.79075 8.3751 8.62499 8.3751H4.11093L1.75468 1.50947L1.74999 1.5001L14.875 8.98681L1.74999 16.5001Z" fill="#355342"/>
</svg>
