<svg width="10" height="10" viewBox="0 0 10 10" fill="none" xmlns="http://www.w3.org/2000/svg">
<path d="M9.375 5C9.375 5.86529 9.11841 6.71115 8.63768 7.43062C8.15695 8.15008 7.47367 8.71084 6.67424 9.04197C5.87481 9.37311 4.99515 9.45975 4.14648 9.29094C3.29781 9.12212 2.51826 8.70545 1.90641 8.09359C1.29456 7.48174 0.877877 6.70219 0.709066 5.85352C0.540256 5.00485 0.626896 4.12519 0.958029 3.32576C1.28916 2.52633 1.84992 1.84305 2.56938 1.36232C3.28885 0.881589 4.13471 0.625 5 0.625C6.16032 0.625 7.27312 1.08594 8.09359 1.90641C8.91407 2.72688 9.375 3.83968 9.375 5Z" fill="#1C1C1C" fill-opacity="0.1"/>
<path d="M9.375 5C9.375 5.86529 9.11841 6.71115 8.63768 7.43062C8.15695 8.15008 7.47367 8.71084 6.67424 9.04197C5.87481 9.37311 4.99515 9.45975 4.14648 9.29094C3.29781 9.12212 2.51826 8.70545 1.90641 8.09359C1.29456 7.48174 0.877877 6.70219 0.709066 5.85352C0.540256 5.00485 0.626896 4.12519 0.958029 3.32576C1.28916 2.52633 1.84992 1.84305 2.56938 1.36232C3.28885 0.881589 4.13471 0.625 5 0.625C6.16032 0.625 7.27312 1.08594 8.09359 1.90641C8.91407 2.72688 9.375 3.83968 9.375 5Z" fill="#355342" fill-opacity="0.1"/>
</svg>
