<svg width="48" height="48" viewBox="0 0 48 48" fill="none" xmlns="http://www.w3.org/2000/svg">
<path d="M24.0001 15C22.2201 15 20.48 15.5278 19 16.5167C17.5199 17.5057 16.3664 18.9113 15.6852 20.5558C15.004 22.2003 14.8258 24.0099 15.173 25.7558C15.5203 27.5016 16.3775 29.1053 17.6361 30.3639C18.8948 31.6226 20.4984 32.4798 22.2443 32.827C23.9901 33.1743 25.7997 32.9961 27.4442 32.3149C29.0888 31.6337 30.4944 30.4801 31.4833 29.0001C32.4722 27.5201 33.0001 25.78 33.0001 24C32.9976 21.6138 32.0486 19.326 30.3613 17.6387C28.674 15.9515 26.3863 15.0024 24.0001 15ZM24.0001 30C22.8134 30 21.6534 29.6481 20.6667 28.9888C19.68 28.3295 18.9109 27.3924 18.4568 26.2961C18.0027 25.1997 17.8839 23.9933 18.1154 22.8294C18.3469 21.6655 18.9183 20.5964 19.7574 19.7573C20.5966 18.9182 21.6657 18.3468 22.8295 18.1153C23.9934 17.8837 25.1998 18.0026 26.2962 18.4567C27.3925 18.9108 28.3296 19.6798 28.9889 20.6665C29.6482 21.6532 30.0001 22.8133 30.0001 24C30.0001 25.5913 29.3679 27.1174 28.2427 28.2426C27.1175 29.3678 25.5914 30 24.0001 30ZM40.5001 24.405C40.5076 24.135 40.5076 23.865 40.5001 23.595L43.2976 20.1C43.4443 19.9165 43.5458 19.7011 43.594 19.4711C43.6422 19.2412 43.6357 19.0032 43.5751 18.7762C43.1165 17.0523 42.4305 15.3972 41.5351 13.8543C41.4178 13.6524 41.2551 13.4807 41.0598 13.3528C40.8645 13.2248 40.642 13.1443 40.4101 13.1175L35.9626 12.6225C35.7776 12.4275 35.5901 12.24 35.4001 12.06L34.8751 7.60121C34.8481 7.36911 34.7672 7.14653 34.639 6.95121C34.5107 6.75589 34.3386 6.59323 34.1363 6.47621C32.5929 5.58249 30.9379 4.89715 29.2145 4.43809C28.9874 4.37771 28.7492 4.37153 28.5193 4.42006C28.2894 4.46859 28.074 4.57046 27.8907 4.71746L24.4051 7.49996C24.1351 7.49996 23.8651 7.49996 23.5951 7.49996L20.1001 4.70809C19.9166 4.5614 19.7012 4.45987 19.4713 4.41167C19.2413 4.36347 19.0033 4.36995 18.7763 4.43059C17.0527 4.89001 15.3977 5.57599 13.8545 6.47059C13.6526 6.58782 13.4808 6.75057 13.3529 6.94588C13.225 7.14119 13.1444 7.36366 13.1176 7.59559L12.6226 12.0506C12.4276 12.2368 12.2401 12.4243 12.0601 12.6131L7.60134 13.125C7.36923 13.152 7.14665 13.2328 6.95133 13.3611C6.75601 13.4893 6.59336 13.6615 6.47634 13.8637C5.58261 15.4071 4.89727 17.0622 4.43821 18.7856C4.37783 19.0127 4.37165 19.2508 4.42018 19.4807C4.46871 19.7107 4.57058 19.926 4.71759 20.1093L7.50009 23.595C7.50009 23.865 7.50009 24.135 7.50009 24.405L4.70821 27.9C4.56153 28.0835 4.45999 28.2989 4.41179 28.5288C4.36359 28.7587 4.37007 28.9967 4.43071 29.2237C4.88932 30.9476 5.57534 32.6027 6.47071 34.1456C6.58795 34.3475 6.7507 34.5192 6.946 34.6472C7.14131 34.7751 7.36378 34.8557 7.59571 34.8825L12.0432 35.3775C12.2295 35.5725 12.417 35.76 12.6057 35.94L13.1251 40.3987C13.1521 40.6308 13.2329 40.8534 13.3612 41.0487C13.4895 41.244 13.6616 41.4067 13.8638 41.5237C15.4073 42.4174 17.0623 43.1028 18.7857 43.5618C19.0128 43.6222 19.2509 43.6284 19.4809 43.5799C19.7108 43.5313 19.9261 43.4295 20.1095 43.2825L23.5951 40.5C23.8651 40.5075 24.1351 40.5075 24.4051 40.5L27.9001 43.2975C28.0836 43.4441 28.299 43.5457 28.5289 43.5939C28.7588 43.6421 28.9969 43.6356 29.2238 43.575C30.9477 43.1164 32.6029 42.4303 34.1457 41.535C34.3476 41.4177 34.5194 41.255 34.6473 41.0597C34.7752 40.8644 34.8558 40.6419 34.8826 40.41L35.3776 35.9625C35.5726 35.7775 35.7601 35.59 35.9401 35.4L40.3988 34.875C40.6309 34.848 40.8535 34.7671 41.0488 34.6388C41.2442 34.5106 41.4068 34.3385 41.5238 34.1362C42.4176 32.5928 43.1029 30.9378 43.562 29.2143C43.6223 28.9872 43.6285 28.7491 43.58 28.5192C43.5315 28.2892 43.4296 28.0739 43.2826 27.8906L40.5001 24.405ZM37.4813 23.1862C37.5132 23.7282 37.5132 24.2717 37.4813 24.8137C37.459 25.1848 37.5753 25.551 37.8076 25.8412L40.4682 29.1656C40.1629 30.1358 39.772 31.077 39.3001 31.9781L35.0626 32.4581C34.6936 32.4991 34.3528 32.6754 34.1063 32.9531C33.7454 33.359 33.361 33.7434 32.9551 34.1043C32.6774 34.3508 32.501 34.6916 32.4601 35.0606L31.9895 39.2943C31.0885 39.7665 30.1473 40.1574 29.177 40.4625L25.8507 37.8018C25.5845 37.5892 25.2539 37.4734 24.9132 37.4737H24.8232C24.2812 37.5056 23.7377 37.5056 23.1957 37.4737C22.8246 37.4514 22.4584 37.5676 22.1682 37.8L18.8345 40.4625C17.8642 40.1572 16.923 39.7663 16.022 39.2943L15.542 35.0625C15.501 34.6934 15.3246 34.3527 15.047 34.1062C14.641 33.7453 14.2566 33.3609 13.8957 32.955C13.6492 32.6773 13.3085 32.5009 12.9395 32.46L8.70571 31.9875C8.23357 31.0865 7.84265 30.1453 7.53759 29.175L10.1982 25.8487C10.4305 25.5585 10.5468 25.1923 10.5245 24.8212C10.4926 24.2792 10.4926 23.7357 10.5245 23.1937C10.5468 22.8226 10.4305 22.4564 10.1982 22.1662L7.53759 18.8343C7.84288 17.8641 8.23379 16.9229 8.70571 16.0218L12.9376 15.5418C13.3066 15.5009 13.6473 15.3245 13.8938 15.0468C14.2548 14.6409 14.6392 14.2565 15.0451 13.8956C15.3239 13.6489 15.501 13.3074 15.542 12.9375L16.0126 8.70559C16.9135 8.23345 17.8547 7.84253 18.8251 7.53746L22.1513 10.1981C22.4416 10.4304 22.8077 10.5467 23.1788 10.5243C23.7209 10.4925 24.2643 10.4925 24.8063 10.5243C25.1774 10.5467 25.5436 10.4304 25.8338 10.1981L29.1657 7.53746C30.136 7.84276 31.0772 8.23367 31.9782 8.70559L32.4582 12.9375C32.4992 13.3065 32.6755 13.6472 32.9532 13.8937C33.3591 14.2546 33.7435 14.639 34.1045 15.045C34.351 15.3226 34.6917 15.499 35.0607 15.54L39.2945 16.0106C39.7666 16.9115 40.1575 17.8528 40.4626 18.8231L37.802 22.1493C37.5674 22.442 37.451 22.812 37.4757 23.1862H37.4813Z" fill="#1C1C1C"/>
<path d="M24.0001 15C22.2201 15 20.48 15.5278 19 16.5167C17.5199 17.5057 16.3664 18.9113 15.6852 20.5558C15.004 22.2003 14.8258 24.0099 15.173 25.7558C15.5203 27.5016 16.3775 29.1053 17.6361 30.3639C18.8948 31.6226 20.4984 32.4798 22.2443 32.827C23.9901 33.1743 25.7997 32.9961 27.4442 32.3149C29.0888 31.6337 30.4944 30.4801 31.4833 29.0001C32.4722 27.5201 33.0001 25.78 33.0001 24C32.9976 21.6138 32.0486 19.326 30.3613 17.6387C28.674 15.9515 26.3863 15.0024 24.0001 15ZM24.0001 30C22.8134 30 21.6534 29.6481 20.6667 28.9888C19.68 28.3295 18.9109 27.3924 18.4568 26.2961C18.0027 25.1997 17.8839 23.9933 18.1154 22.8294C18.3469 21.6655 18.9183 20.5964 19.7574 19.7573C20.5966 18.9182 21.6657 18.3468 22.8295 18.1153C23.9934 17.8837 25.1998 18.0026 26.2962 18.4567C27.3925 18.9108 28.3296 19.6798 28.9889 20.6665C29.6482 21.6532 30.0001 22.8133 30.0001 24C30.0001 25.5913 29.3679 27.1174 28.2427 28.2426C27.1175 29.3678 25.5914 30 24.0001 30ZM40.5001 24.405C40.5076 24.135 40.5076 23.865 40.5001 23.595L43.2976 20.1C43.4443 19.9165 43.5458 19.7011 43.594 19.4711C43.6422 19.2412 43.6357 19.0032 43.5751 18.7762C43.1165 17.0523 42.4305 15.3972 41.5351 13.8543C41.4178 13.6524 41.2551 13.4807 41.0598 13.3528C40.8645 13.2248 40.642 13.1443 40.4101 13.1175L35.9626 12.6225C35.7776 12.4275 35.5901 12.24 35.4001 12.06L34.8751 7.60121C34.8481 7.36911 34.7672 7.14653 34.639 6.95121C34.5107 6.75589 34.3386 6.59323 34.1363 6.47621C32.5929 5.58249 30.9379 4.89715 29.2145 4.43809C28.9874 4.37771 28.7492 4.37153 28.5193 4.42006C28.2894 4.46859 28.074 4.57046 27.8907 4.71746L24.4051 7.49996C24.1351 7.49996 23.8651 7.49996 23.5951 7.49996L20.1001 4.70809C19.9166 4.5614 19.7012 4.45987 19.4713 4.41167C19.2413 4.36347 19.0033 4.36995 18.7763 4.43059C17.0527 4.89001 15.3977 5.57599 13.8545 6.47059C13.6526 6.58782 13.4808 6.75057 13.3529 6.94588C13.225 7.14119 13.1444 7.36366 13.1176 7.59559L12.6226 12.0506C12.4276 12.2368 12.2401 12.4243 12.0601 12.6131L7.60134 13.125C7.36923 13.152 7.14665 13.2328 6.95133 13.3611C6.75601 13.4893 6.59336 13.6615 6.47634 13.8637C5.58261 15.4071 4.89727 17.0622 4.43821 18.7856C4.37783 19.0127 4.37165 19.2508 4.42018 19.4807C4.46871 19.7107 4.57058 19.926 4.71759 20.1093L7.50009 23.595C7.50009 23.865 7.50009 24.135 7.50009 24.405L4.70821 27.9C4.56153 28.0835 4.45999 28.2989 4.41179 28.5288C4.36359 28.7587 4.37007 28.9967 4.43071 29.2237C4.88932 30.9476 5.57534 32.6027 6.47071 34.1456C6.58795 34.3475 6.7507 34.5192 6.946 34.6472C7.14131 34.7751 7.36378 34.8557 7.59571 34.8825L12.0432 35.3775C12.2295 35.5725 12.417 35.76 12.6057 35.94L13.1251 40.3987C13.1521 40.6308 13.2329 40.8534 13.3612 41.0487C13.4895 41.244 13.6616 41.4067 13.8638 41.5237C15.4073 42.4174 17.0623 43.1028 18.7857 43.5618C19.0128 43.6222 19.2509 43.6284 19.4809 43.5799C19.7108 43.5313 19.9261 43.4295 20.1095 43.2825L23.5951 40.5C23.8651 40.5075 24.1351 40.5075 24.4051 40.5L27.9001 43.2975C28.0836 43.4441 28.299 43.5457 28.5289 43.5939C28.7588 43.6421 28.9969 43.6356 29.2238 43.575C30.9477 43.1164 32.6029 42.4303 34.1457 41.535C34.3476 41.4177 34.5194 41.255 34.6473 41.0597C34.7752 40.8644 34.8558 40.6419 34.8826 40.41L35.3776 35.9625C35.5726 35.7775 35.7601 35.59 35.9401 35.4L40.3988 34.875C40.6309 34.848 40.8535 34.7671 41.0488 34.6388C41.2442 34.5106 41.4068 34.3385 41.5238 34.1362C42.4176 32.5928 43.1029 30.9378 43.562 29.2143C43.6223 28.9872 43.6285 28.7491 43.58 28.5192C43.5315 28.2892 43.4296 28.0739 43.2826 27.8906L40.5001 24.405ZM37.4813 23.1862C37.5132 23.7282 37.5132 24.2717 37.4813 24.8137C37.459 25.1848 37.5753 25.551 37.8076 25.8412L40.4682 29.1656C40.1629 30.1358 39.772 31.077 39.3001 31.9781L35.0626 32.4581C34.6936 32.4991 34.3528 32.6754 34.1063 32.9531C33.7454 33.359 33.361 33.7434 32.9551 34.1043C32.6774 34.3508 32.501 34.6916 32.4601 35.0606L31.9895 39.2943C31.0885 39.7665 30.1473 40.1574 29.177 40.4625L25.8507 37.8018C25.5845 37.5892 25.2539 37.4734 24.9132 37.4737H24.8232C24.2812 37.5056 23.7377 37.5056 23.1957 37.4737C22.8246 37.4514 22.4584 37.5676 22.1682 37.8L18.8345 40.4625C17.8642 40.1572 16.923 39.7663 16.022 39.2943L15.542 35.0625C15.501 34.6934 15.3246 34.3527 15.047 34.1062C14.641 33.7453 14.2566 33.3609 13.8957 32.955C13.6492 32.6773 13.3085 32.5009 12.9395 32.46L8.70571 31.9875C8.23357 31.0865 7.84265 30.1453 7.53759 29.175L10.1982 25.8487C10.4305 25.5585 10.5468 25.1923 10.5245 24.8212C10.4926 24.2792 10.4926 23.7357 10.5245 23.1937C10.5468 22.8226 10.4305 22.4564 10.1982 22.1662L7.53759 18.8343C7.84288 17.8641 8.23379 16.9229 8.70571 16.0218L12.9376 15.5418C13.3066 15.5009 13.6473 15.3245 13.8938 15.0468C14.2548 14.6409 14.6392 14.2565 15.0451 13.8956C15.3239 13.6489 15.501 13.3074 15.542 12.9375L16.0126 8.70559C16.9135 8.23345 17.8547 7.84253 18.8251 7.53746L22.1513 10.1981C22.4416 10.4304 22.8077 10.5467 23.1788 10.5243C23.7209 10.4925 24.2643 10.4925 24.8063 10.5243C25.1774 10.5467 25.5436 10.4304 25.8338 10.1981L29.1657 7.53746C30.136 7.84276 31.0772 8.23367 31.9782 8.70559L32.4582 12.9375C32.4992 13.3065 32.6755 13.6472 32.9532 13.8937C33.3591 14.2546 33.7435 14.639 34.1045 15.045C34.351 15.3226 34.6917 15.499 35.0607 15.54L39.2945 16.0106C39.7666 16.9115 40.1575 17.8528 40.4626 18.8231L37.802 22.1493C37.5674 22.442 37.451 22.812 37.4757 23.1862H37.4813Z" fill="#375739"/>
</svg>
